<svg id="Layer_1" data-name="Layer 1" xmlns="http://www.w3.org/2000/svg" viewBox="0 0 109.62 15.89"><defs><style>.cls-1{fill:#fff;}</style></defs><title>wc_logo</title><path class="cls-1" d="M20.93,3.17l-3.43,12a2.24,2.24,0,0,1-2.12,1.61h0a2.13,2.13,0,0,1-2.09-1.61L10.93,6.09l-2.3,9.06a2.16,2.16,0,0,1-2.07,1.61h0a2.24,2.24,0,0,1-2.14-1.61L.93,3.15a1.45,1.45,0,0,1-.07-.44A1.72,1.72,0,0,1,2.61,1a1.76,1.76,0,0,1,1.7,1.33l2.44,10,2.62-10A1.64,1.64,0,0,1,11,1.15a1.59,1.59,0,0,1,1.52,1.2l2.62,10,2.39-10A1.78,1.78,0,0,1,19.25,1,1.71,1.71,0,0,1,21,2.71,1.48,1.48,0,0,1,20.93,3.17Z" transform="translate(-0.86 -1.01)"/><path class="cls-1" d="M30.55,12H23.7a3,3,0,0,0,3.2,2.58A4.93,4.93,0,0,0,29.05,14a1.32,1.32,0,0,1,.58-.14,1.22,1.22,0,0,1,1.24,1.17c0,1.31-2.83,1.84-4.3,1.84a5.62,5.62,0,0,1-5.93-5.84,5.65,5.65,0,0,1,5.75-5.82A5.3,5.3,0,0,1,31.58,9a5.88,5.88,0,0,1,.32,1.68A1.35,1.35,0,0,1,30.55,12ZM26.39,7.56A2.67,2.67,0,0,0,23.65,10h5.47A2.57,2.57,0,0,0,26.39,7.56Z" transform="translate(-0.86 -1.01)"/><path class="cls-1" d="M39.75,16.9a4.31,4.31,0,0,1-3.43-1.7v.12a1.46,1.46,0,0,1-2.92,0V2.58A1.45,1.45,0,0,1,34.9,1.15a1.43,1.43,0,0,1,1.43,1.43V6.94a4.28,4.28,0,0,1,3.43-1.7c2.83,0,4.92,2.21,4.92,5.84S42.55,16.9,39.75,16.9Zm-.92-9.06a3.22,3.22,0,0,0-2.51,1.29v3.93a3.25,3.25,0,0,0,2.51,1.24c1.7,0,2.83-1.29,2.83-3.22S40.53,7.84,38.83,7.84Z" transform="translate(-0.86 -1.01)"/><path class="cls-1" d="M59.5,3.56a1.47,1.47,0,0,1,.32.9,1.52,1.52,0,0,1-1.56,1.47,1.64,1.64,0,0,1-1.2-.53,4.42,4.42,0,0,0-3.15-1.47,4.78,4.78,0,0,0-4.81,5,4.78,4.78,0,0,0,4.81,5,4.26,4.26,0,0,0,3.15-1.45A1.71,1.71,0,0,1,58.31,12a1.46,1.46,0,0,1,1.49,1.43,1.31,1.31,0,0,1-.32.9,6.89,6.89,0,0,1-5.56,2.55A7.79,7.79,0,0,1,45.75,9,7.79,7.79,0,0,1,53.92,1,7,7,0,0,1,59.5,3.56Z" transform="translate(-0.86 -1.01)"/><path class="cls-1" d="M69.92,16.76H69.7a1.28,1.28,0,0,1-1.27-1.29,4.59,4.59,0,0,1-3.52,1.43A3.7,3.7,0,0,1,61,13.22c0-2.6,2.09-3.59,3.86-3.59A4.57,4.57,0,0,1,68.43,11V9.5c0-1.13-1-1.86-2.44-1.86a4.39,4.39,0,0,0-2.48.71,1.09,1.09,0,0,1-.53.16,1.12,1.12,0,0,1-1.1-1.13A1.19,1.19,0,0,1,62,6.81c.69-1.1,3.17-1.56,4.46-1.56,2.53,0,4.85,1,4.85,4.21v5.86A1.44,1.44,0,0,1,69.92,16.76Zm-1.5-4.19a2.92,2.92,0,0,0-2.34-1c-1.15,0-2.09.6-2.09,1.68s.94,1.63,2.09,1.63a2.92,2.92,0,0,0,2.34-1Z" transform="translate(-0.86 -1.01)"/><path class="cls-1" d="M77.79,16.9c-1.45,0-3.77-.48-4.46-1.47a1,1,0,0,1-.21-.62,1.24,1.24,0,0,1,1.22-1.22,1.12,1.12,0,0,1,.6.16,6.45,6.45,0,0,0,3,.9c1.26,0,1.86-.51,1.86-1.2,0-1.84-6.6-.34-6.6-4.71,0-1.86,1.63-3.5,4.55-3.5,1.45,0,3.43.46,4,1.36a1,1,0,0,1,.18.57,1.16,1.16,0,0,1-1.7,1,5.1,5.1,0,0,0-2.51-.67C76.71,7.47,76,8,76,8.58c0,1.66,6.58.28,6.58,4.76C82.6,15.36,80.87,16.9,77.79,16.9Z" transform="translate(-0.86 -1.01)"/><path class="cls-1" d="M88,16.9c-2,0-3.15-1.06-3.15-3V8.07h-.71A1.29,1.29,0,0,1,82.9,6.76a1.27,1.27,0,0,1,1.26-1.24h.71V3.79a1.47,1.47,0,0,1,2.94,0V5.52H89a1.28,1.28,0,0,1,0,2.55H87.82v5c0,.87.55,1.22,1,1.22h.25a1.2,1.2,0,0,1,1.29,1.26C90.37,16.3,89.94,16.9,88,16.9Z" transform="translate(-0.86 -1.01)"/><path class="cls-1" d="M100.81,12H94a3,3,0,0,0,3.2,2.58A4.93,4.93,0,0,0,99.32,14a1.32,1.32,0,0,1,.58-.14,1.22,1.22,0,0,1,1.24,1.17c0,1.31-2.83,1.84-4.3,1.84a5.62,5.62,0,0,1-5.93-5.84,5.65,5.65,0,0,1,5.75-5.82A5.3,5.3,0,0,1,101.85,9a5.87,5.87,0,0,1,.32,1.68A1.35,1.35,0,0,1,100.81,12ZM96.65,7.56A2.67,2.67,0,0,0,93.91,10h5.47A2.57,2.57,0,0,0,96.65,7.56Z" transform="translate(-0.86 -1.01)"/><path class="cls-1" d="M109.07,8.12a3.34,3.34,0,0,0-2.28,1.17v6a1.44,1.44,0,0,1-1.43,1.45h0a1.44,1.44,0,0,1-1.45-1.45V6.81a1.45,1.45,0,0,1,1.5-1.43,1.43,1.43,0,0,1,1.43,1.43V7a3.19,3.19,0,0,1,2.39-1.61,1.16,1.16,0,0,1,1.29,1.2A1.47,1.47,0,0,1,109.07,8.12Z" transform="translate(-0.86 -1.01)"/></svg>
